<svg xmlns="http://www.w3.org/2000/svg" xmlns:xlink="http://www.w3.org/1999/xlink" width="156" height="55" viewBox="0 0 156 55">
    <defs>
        <path id="b" d="M12.252 25.249a3.156 3.156 0 1 1 6.312 0 3.156 3.156 0 0 1-6.312 0zM27.995 0c-2.584 0-6.192 1.495-8.019 3.321L1.37 21.927a4.711 4.711 0 0 0 0 6.643l18.606 18.606c1.827 1.827 5.435 3.321 8.019 3.321h118.682a4.71 4.71 0 0 0 4.697-4.697V4.697A4.71 4.71 0 0 0 146.677 0H27.995z"/>
        <filter id="a" width="104.6%" height="113.9%" x="-2.3%" y="-5%" filterUnits="objectBoundingBox">
            <feOffset dy="1" in="SourceAlpha" result="shadowOffsetOuter1"/>
            <feGaussianBlur in="shadowOffsetOuter1" result="shadowBlurOuter1" stdDeviation="1"/>
            <feColorMatrix in="shadowBlurOuter1" values="0 0 0 0 0 0 0 0 0 0 0 0 0 0 0 0 0 0 0.5 0"/>
        </filter>
    </defs>
    <g fill="none" fill-rule="evenodd" transform="translate(2 1)">
        <use fill="#000" filter="url(#a)" xlink:href="#b"/>
        <use fill="#006EB7" xlink:href="#b"/>
    </g>
</svg>
