<?xml version="1.0" encoding="utf-8"?>
<!-- Generator: Adobe Illustrator 22.0.1, SVG Export Plug-In . SVG Version: 6.00 Build 0)  -->
<svg version="1.1" id="圖層_1" xmlns="http://www.w3.org/2000/svg" xmlns:xlink="http://www.w3.org/1999/xlink" x="0px" y="0px"
	 viewBox="0 0 500 500" style="enable-background:new 0 0 500 500;" xml:space="preserve">
<style type="text/css">
	.st0{fill:#008ED2;}
	.st1{fill:none;}
</style>
<g>
	<path class="st0" d="M250,55.2C142.6,55.2,55.2,142.6,55.2,250S142.6,444.8,250,444.8S444.8,357.4,444.8,250S357.4,55.2,250,55.2z
		 M250,431.3C150,431.3,68.7,350,68.7,250S150,68.7,250,68.7S431.3,150,431.3,250S350,431.3,250,431.3z"/>
	<path class="st0" d="M409,250.5c-1.3-1.3-3-2.1-4.8-2.1h-56.6c1.3-6.1,2.2-11.9,2.8-17.2h51.9c2,0,3.9-0.9,5.1-2.4
		c1.3-1.5,1.8-3.5,1.5-5.5c-6.2-37.2-25.5-71.3-54.2-95.9c-29.1-24.9-66.2-38.7-104.6-38.7s-75.5,13.7-104.6,38.7
		c-28.7,24.6-48,58.7-54.2,95.9c-0.3,2,0.2,4,1.5,5.5s3.2,2.4,5.1,2.4h51.9c0.5,5.3,1.4,11.1,2.8,17.2H95.8c-1.8,0-3.6,0.7-4.8,2.1
		c-1.3,1.3-2,3.1-1.9,4.9c1.3,39.1,16.8,76.4,43.5,104.9c26.7,28.4,62.7,46.2,101.3,50c0.2,0,0.4,0,0.7,0c1.7,0,3.3-0.6,4.5-1.7
		c1.4-1.3,2.2-3.1,2.2-5v-77.2c2.8,0.2,5.7,0.3,8.7,0.3c2.9,0,5.8-0.1,8.6-0.3v77.2c0,1.9,0.8,3.7,2.2,5c1.2,1.1,2.9,1.7,4.5,1.7
		c0.2,0,0.4,0,0.7,0c38.7-3.8,74.7-21.6,101.4-50c26.8-28.5,42.3-65.8,43.6-105C411,253.6,410.3,251.8,409,250.5z M106,217.7
		c6.9-31,23.8-59.2,48.1-80c26.7-22.8,60.7-35.4,95.8-35.4s69.2,12.6,95.8,35.4c24.3,20.8,41.2,49,48.1,80h-42.9
		c0.1-7.6-0.3-12.6-0.4-13.3c-0.3-3.5-3.2-6.1-6.7-6.1H155.9c-3.5,0-6.4,2.6-6.7,6.1c-0.1,0.7-0.5,5.7-0.4,13.3H106z M227.9,396
		c-32.6-4.9-62.7-20.7-85.4-44.9c-22.9-24.5-36.8-55.9-39.5-89.2h53.2c4.1,12.4,10.5,25.1,20.4,35.9c13.1,14.4,30.3,23.5,51.3,27.1
		V396z M186.6,288.8c-22.6-24.9-24.4-62.4-24.2-77h175.3c0.2,14.6-1.6,52.1-24.2,77c-14.8,16.2-36.1,24.5-63.4,24.5
		C222.7,313.3,201.3,305,186.6,288.8z M272,396.1V325c21.1-3.6,38.3-12.7,51.4-27.1c9.8-10.8,16.2-23.5,20.4-35.9H397
		C391.6,330.1,339.4,386,272,396.1z"/>
	<path class="st0" d="M250,225.5c-14.6,0-26.4,11.9-26.4,26.4c0,14.6,11.9,26.4,26.4,26.4c14.6,0,26.4-11.9,26.4-26.4
		C276.4,237.3,264.6,225.5,250,225.5z M250,264.9c-7.1,0-12.9-5.8-12.9-12.9s5.8-13,12.9-13s12.9,5.8,12.9,12.9
		C262.9,259,257.1,264.9,250,264.9z"/>
</g>
<rect class="st1" width="500" height="500"/>
</svg>
