<?xml version="1.0" encoding="UTF-8"?>
<svg width="21px" height="21px" viewBox="0 0 21 21" version="1.1" xmlns="http://www.w3.org/2000/svg" xmlns:xlink="http://www.w3.org/1999/xlink">
    <!-- Generator: Sketch 49.1 (51147) - http://www.bohemiancoding.com/sketch -->
    <title>Fill 1 Copy 3</title>
    <desc>Created with Sketch.</desc>
    <defs></defs>
    <g id="Welcome" stroke="none" stroke-width="1" fill="none" fill-rule="evenodd">
        <g id="regitser-Desktop-HD" transform="translate(-409.000000, -163.000000)" fill="#9B9B9B">
            <path d="M429.76516,182.63213 L420.633095,173.49996 L429.76516,164.36779 C430.077959,164.054988 430.077959,163.547645 429.76516,163.234842 C429.452041,162.921719 428.945024,162.921719 428.631905,163.234842 L419.50016,172.366691 L410.368095,163.234842 C410.054976,162.921719 409.547639,162.921719 409.23484,163.234842 C408.922041,163.547645 408.922041,164.054988 409.23484,164.36779 L418.366905,173.49996 L409.23484,182.63213 C408.92172,182.945253 408.92172,183.452275 409.23484,183.765398 C409.547639,184.078201 410.054976,184.078201 410.367775,183.765398 L419.50016,174.633228 L428.632225,183.765398 C428.945024,184.078201 429.452361,184.078201 429.76516,183.765398 C430.07828,183.452275 430.07828,182.945253 429.76516,182.63213" id="Fill-1-Copy-3"></path>
        </g>
    </g>
</svg>