<?xml version="1.0" encoding="utf-8"?>
<!-- Generator: Adobe Illustrator 22.1.0, SVG Export Plug-In . SVG Version: 6.00 Build 0)  -->
<svg version="1.1" id="圖層_1" xmlns="http://www.w3.org/2000/svg" xmlns:xlink="http://www.w3.org/1999/xlink" x="0px" y="0px"
	 viewBox="0 0 180.6 38" style="enable-background:new 0 0 180.6 38;" xml:space="preserve">
<style type="text/css">
	.st0{fill:#0A4C69;}
	.st1{fill:#45B1E6;}
	.st2{fill:#008ED2;}
</style>
<title>logo</title>
<desc>Created with Sketch.</desc>
<g>
	<path class="st0" d="M137.7,31.1c-2.6,0-4.8-2.1-4.8-4.8v-7.4c0-2.6,2.1-4.8,4.8-4.8h6.8c0.6,0,1.1,0.5,1.1,1.1
		c0,0.6-0.5,1.1-1.1,1.1h-6.8c-1.4,0-2.6,1.2-2.6,2.6v7.4c0,1.4,1.2,2.6,2.6,2.6h6.8c0.6,0,1.1,0.5,1.1,1.1c0,0.6-0.5,1.1-1.1,1.1
		H137.7z"/>
</g>
<g>
	<path class="st0" d="M172.7,31.1c-2.6,0-4.8-2.1-4.8-4.8v-7.4c0-2.6,2.1-4.8,4.8-4.8h6.8c0.6,0,1.1,0.5,1.1,1.1
		c0,0.6-0.5,1.1-1.1,1.1h-6.8c-1.4,0-2.6,1.2-2.6,2.6v7.4c0,1.4,1.2,2.6,2.6,2.6h6.8c0.6,0,1.1,0.5,1.1,1.1c0,0.6-0.5,1.1-1.1,1.1
		H172.7z"/>
</g>
<g>
	<g>
		<path class="st0" d="M99,31.1c-0.6,0-1.1-0.5-1.1-1.1V16.3h-5.7c-1.4,0-2.6,1.2-2.6,2.6V30c0,0.6-0.5,1.1-1.1,1.1
			c-0.6,0-1.1-0.5-1.1-1.1V18.9c0-2.6,2.1-4.8,4.8-4.8H99c0.6,0,1.1,0.5,1.1,1.1V30C100.1,30.6,99.6,31.1,99,31.1z"/>
	</g>
	<g>
		<path class="st0" d="M88.6,23.7c-0.6,0-1.1-0.5-1.1-1.1c0-0.6,0.5-1.1,1.1-1.1H99c0.6,0,1.1,0.5,1.1,1.1c0,0.6-0.5,1.1-1.1,1.1
			H88.6z"/>
	</g>
</g>
<g>
	<g>
		<path class="st0" d="M116.6,31.1c-0.6,0-1.1-0.5-1.1-1.1V15.2c0-0.6,0.5-1.1,1.1-1.1h6.8c2.6,0,4.8,2.1,4.8,4.8
			c0,2.6-2.1,4.8-4.8,4.8h-5.7V30C117.7,30.6,117.2,31.1,116.6,31.1z M117.7,21.5h5.7c1.4,0,2.6-1.2,2.6-2.6c0-1.4-1.2-2.6-2.6-2.6
			h-5.7V21.5z"/>
	</g>
	<g>
		<path class="st0" d="M127.1,31.1c-0.4,0-0.8-0.2-1-0.6l-3.7-7.4c-0.1-0.3-0.2-0.6-0.1-0.8c0.1-0.3,0.3-0.5,0.5-0.6
			c0.2-0.1,0.3-0.1,0.5-0.1c0.4,0,0.8,0.2,1,0.6l3.7,7.4c0.1,0.3,0.2,0.6,0.1,0.8c-0.1,0.3-0.3,0.5-0.5,0.6
			C127.4,31,127.2,31.1,127.1,31.1z"/>
	</g>
</g>
<g>
	<path class="st0" d="M162.1,31.2c-0.4,0-0.7-0.2-0.9-0.5l-8.6-12.1V30c0,0.6-0.5,1.1-1.1,1.1c-0.6,0-1.1-0.5-1.1-1.1V15.2
		c0-0.5,0.3-0.9,0.8-1c0.1,0,0.2-0.1,0.3-0.1c0.4,0,0.7,0.2,0.9,0.5l8.6,12.1V15.2c0-0.6,0.5-1.1,1.1-1.1c0.6,0,1.1,0.5,1.1,1.1
		v14.9c0,0.5-0.3,0.9-0.8,1C162.3,31.2,162.2,31.2,162.1,31.2z"/>
</g>
<g>
	<path class="st0" d="M107.8,31.1c-0.6,0-1.1-0.5-1.1-1.1V15.2c0-0.6,0.5-1.1,1.1-1.1c0.6,0,1.1,0.5,1.1,1.1V30
		C108.9,30.6,108.4,31.1,107.8,31.1z"/>
</g>
<path class="st1" d="M71.7,11.9C68.8,9,64.9,7.4,60.8,7.4h-5.5c-2,0-3.7,1.6-3.7,3.7c0,2,1.6,3.7,3.7,3.7h5.5c2.1,0,4.1,0.8,5.6,2.3
	c1.5,1.5,2.3,3.5,2.3,5.6c0,2.1-0.8,4.1-2.3,5.6c-3.1,3.1-8.1,3.1-11.2,0l-7.9-7.9l-5.2,5.2l7.9,7.9c3,3,6.9,4.5,10.8,4.5
	s7.8-1.5,10.8-4.5c2.9-2.9,4.5-6.7,4.5-10.8S74.5,14.8,71.7,11.9z"/>
<g>
	<path class="st2" d="M40.3,23.9L27.1,10.7c-4.5-4.5-11.9-4.5-16.4,0c-4.5,4.5-4.5,11.9,0,16.4c2.1,2.1,4.9,3.3,7.8,3.4l13.8,0
		c2,0,3.7,1.6,3.7,3.7c0,2-1.6,3.7-3.7,3.7c0,0,0,0,0,0l-14,0c-4.9-0.1-9.4-2.1-12.9-5.5c-7.4-7.4-7.4-19.4,0-26.8s19.4-7.4,26.8,0
		l13.1,13.1L40.3,23.9z"/>
</g>
</svg>
