<?xml version="1.0" encoding="UTF-8"?>
<svg width="21px" height="20px" viewBox="0 0 21 20" version="1.1" xmlns="http://www.w3.org/2000/svg" xmlns:xlink="http://www.w3.org/1999/xlink">
    <!-- Generator: Sketch 50.2 (55047) - http://www.bohemiancoding.com/sketch -->
    <title>IG</title>
    <desc>Created with Sketch.</desc>
    <defs></defs>
    <g id="Index" stroke="none" stroke-width="1" fill="none" fill-rule="evenodd">
        <g id="Index-Desktop-HD" transform="translate(-1112.000000, -3547.000000)" fill="#4A4A4A">
            <g id="footer" transform="translate(220.000000, 3547.000000)">
                <g id="social-media" transform="translate(861.000000, 0.000000)">
                    <g id="IG" transform="translate(31.000000, 0.000000)">
                        <path d="M19.1370156,14.4808087 C19.1370156,16.5457438 17.373031,18.2254926 15.2048491,18.2254926 L5.79502665,18.2254926 C3.62709318,18.2256109 1.8632328,16.5457438 1.8632328,14.4808087 L1.8632328,5.5193096 C1.8632328,3.45437446 3.62709318,1.77450743 5.79502665,1.77450743 L15.2047249,1.77450743 C17.3729068,1.77450743 19.1367672,3.45437446 19.1367672,5.5193096 L19.1367672,14.4808087 L19.1370156,14.4808087 Z M15.2047249,0 L5.79502665,0 C2.59970661,0 0,2.47591106 0,5.5193096 L0,14.4808087 C0,17.5242072 2.59970661,20 5.79502665,20 L15.2047249,20 C18.4002934,20 21,17.5240889 21,14.4808087 L21,5.5193096 C21.0002484,2.47591106 18.4002934,0 15.2047249,0 Z" id="Fill-1"></path>
                        <path d="M10.5755396,13.4680645 C8.60927389,13.4680645 7.00944353,11.9446194 7.00944353,10.0719424 C7.00944353,8.19914657 8.60914904,6.67558254 10.5755396,6.67558254 C12.5419301,6.67558254 14.1416356,8.19914657 14.1416356,10.0719424 C14.1416356,11.9446194 12.5419301,13.4680645 10.5755396,13.4680645 M10.5755396,4.89208633 C7.5765131,4.89208633 5.13669065,7.21578011 5.13669065,10.0720614 C5.13669065,12.9282237 7.5765131,15.2517986 10.5755396,15.2517986 C13.574566,15.2517986 16.0143885,12.9282237 16.0143885,10.0720614 C16.0143885,7.21578011 13.574566,4.89208633 10.5755396,4.89208633" id="Fill-3"></path>
                        <path d="M16.1654676,3.30935252 C15.8082341,3.30935252 15.4573048,3.4470896 15.2050164,3.68842381 C14.9514918,3.92858077 14.8057554,4.26291694 14.8057554,4.60431655 C14.8057554,4.94465664 14.9516154,5.27887508 15.2050164,5.52020929 C15.4573048,5.76036625 15.8082341,5.89928058 16.1654676,5.89928058 C16.5239372,5.89928058 16.8737541,5.76036625 17.127155,5.52020929 C17.3805559,5.27887508 17.5251799,4.94453891 17.5251799,4.60431655 C17.5251799,4.26291694 17.3805559,3.92858077 17.127155,3.68842381 C16.8749902,3.4470896 16.5239372,3.30935252 16.1654676,3.30935252" id="Fill-5"></path>
                    </g>
                </g>
            </g>
        </g>
    </g>
</svg>