<?xml version="1.0" encoding="utf-8"?>
<!-- Generator: Adobe Illustrator 22.1.0, SVG Export Plug-In . SVG Version: 6.00 Build 0)  -->
<svg version="1.1" id="圖層_1" xmlns="http://www.w3.org/2000/svg" xmlns:xlink="http://www.w3.org/1999/xlink" x="0px" y="0px"
	 viewBox="0 0 50 50" style="enable-background:new 0 0 50 50;" xml:space="preserve">
<style type="text/css">
	.st0{fill:#FFFFFF;}
	.st1{fill:#0A122D;}
	.st2{fill:#1886C3;}
</style>
<g>
	<path class="st0" d="M12,48.9c-6.1,0-11-4.9-11-11V12C1,5.9,5.9,1,12,1h25.9c6.1,0,11,4.9,11,11v25.9c0,6.1-4.9,11-11,11H12z"/>
	<path class="st1" d="M37.9,2c5.5,0,10,4.5,10,10v25.9c0,5.5-4.5,10-10,10H12c-5.5,0-10-4.5-10-10V12C2,6.5,6.5,2,12,2H37.9 M37.9,0
		H12C5.4,0,0,5.4,0,12v25.9c0,6.6,5.4,12,12,12h25.9c6.6,0,12-5.4,12-12V12C49.9,5.4,44.5,0,37.9,0L37.9,0z"/>
</g>
<g>
	<path class="st2" d="M37.9,2c5.5,0,10,4.5,10,10v25.9c0,5.5-4.5,10-10,10H12c-5.5,0-10-4.5-10-10V12C2,6.5,6.5,2,12,2H37.9 M37.9,0
		H12C5.4,0,0,5.4,0,12v25.9c0,6.6,5.4,12,12,12h25.9c6.6,0,12-5.4,12-12V12C49.9,5.4,44.5,0,37.9,0L37.9,0z"/>
</g>
<path class="st2" d="M34.5,8c4.1,0,7.4,3.3,7.4,7.4v19.1c0,4.1-3.3,7.4-7.4,7.4H15.4c-4.1,0-7.4-3.3-7.4-7.4V15.4
	C8,11.3,11.3,8,15.4,8H34.5"/>
</svg>
