<?xml version="1.0" encoding="UTF-8"?>
<svg width="23px" height="21px" viewBox="0 0 23 21" version="1.1" xmlns="http://www.w3.org/2000/svg" xmlns:xlink="http://www.w3.org/1999/xlink">
    <!-- Generator: Sketch 50.2 (55047) - http://www.bohemiancoding.com/sketch -->
    <title>line</title>
    <desc>Created with Sketch.</desc>
    <defs></defs>
    <g id="Index" stroke="none" stroke-width="1" fill="none" fill-rule="evenodd">
        <g id="Index-Desktop-HD" transform="translate(-1153.000000, -3547.000000)" fill="#4A4A4A">
            <g id="footer" transform="translate(220.000000, 3547.000000)">
                <g id="social-media" transform="translate(861.000000, 0.000000)">
                    <path d="M90.5535006,8.47177241 C90.8782896,8.47177241 91.1415258,8.72592425 91.1415258,9.03942255 C91.1415258,9.35292084 90.8782896,9.60707268 90.5535006,9.60707268 L88.7892183,9.60707268 L88.7892183,10.6146317 L90.5535006,10.6146317 C90.8782896,10.6146317 91.1415258,10.8687836 91.1415258,11.1822818 C91.1415258,11.4957801 90.8782896,11.749932 90.5535006,11.749932 L88.2011931,11.749932 C87.8764042,11.749932 87.613099,11.4957801 87.613099,11.1822818 L87.613099,6.89669631 C87.613099,6.58319802 87.8764042,6.32904618 88.2011931,6.32904618 L90.5535006,6.32904618 C90.8782896,6.32904618 91.1415258,6.58319802 91.1415258,6.89669631 C91.1415258,7.21019461 90.8782896,7.46434645 90.5535006,7.46421338 L88.7892183,7.46421338 L88.7892183,8.47177241 L90.5535006,8.47177241 Z M86.7310957,11.158663 C86.7310957,11.4738911 86.4641374,11.7527263 86.1375563,11.7498654 C85.9832953,11.7485348 85.8436471,11.6897206 85.7396347,11.5947131 C85.7045503,11.5626447 83.3203291,8.58001981 83.3203291,8.58001981 L83.3203291,11.1822153 C83.3203291,11.4957136 83.057024,11.7498654 82.7321661,11.7498654 C82.4073771,11.7498654 82.1441409,11.4957136 82.1441409,11.1822153 L82.1441409,6.91998248 C82.1441409,6.61100835 82.3894558,6.34115498 82.7092819,6.32944537 C82.8928373,6.32272565 83.0582647,6.3975075 83.1704795,6.51906127 C83.2063221,6.5579159 85.5548386,9.51479294 85.5548386,9.51479294 L85.5548386,6.89669631 C85.5548386,6.58319802 85.8182126,6.32911271 86.1430016,6.32904618 C86.4677906,6.32904618 86.7310957,6.58319802 86.7310957,6.89669631 L86.7310957,11.158663 Z M81.2620686,11.3063638 C81.2620686,11.5513343 81.0563184,11.749932 80.8024564,11.749932 L80.5454237,11.749932 C80.2916307,11.749932 80.0858804,11.5513343 80.0858804,11.3063638 L80.0858804,6.77261433 C80.0858804,6.52764389 80.2916307,6.32904618 80.5454237,6.32904618 L80.8024564,6.32904618 C81.0563184,6.32904618 81.2620686,6.52764389 81.2620686,6.77261433 L81.2620686,11.3063638 Z M78.9391934,11.749932 L76.5868859,11.749932 C76.2620969,11.749932 75.9987918,11.4957801 75.9987918,11.1822818 L75.9987918,6.89669631 C75.9987918,6.58319802 76.2620969,6.32904618 76.5868859,6.32904618 C76.9116749,6.32904618 77.1749111,6.58319802 77.1749111,6.89669631 L77.1749111,10.6146317 L78.9391934,10.6146317 C79.2639824,10.6146317 79.5272875,10.8687836 79.5272875,11.1822818 C79.5272875,11.4957801 79.2639824,11.749932 78.9391934,11.749932 Z M94.9811628,8.41648441 C94.702142,3.73210669 89.6671549,0 83.496716,0 C77.147202,0 72,3.95179501 72,8.82658701 C72,13.3072441 76.3485327,17.0080142 81.98216,17.5772611 C82.3266624,17.6120573 82.5750101,17.9121827 82.536755,18.2443765 L82.2969544,20.3282885 C82.2425012,20.8013303 82.7491913,21.1454998 83.1933636,20.9385856 C87.9530522,18.7213436 90.7992291,16.4402976 92.4989259,14.4641007 C92.808206,14.1044958 93.8166923,12.7406584 94.0223047,12.3824507 C94.4586881,11.6219911 94.7595591,10.8053787 94.9010684,9.9504438 C94.9539362,9.6819876 94.9800599,9.45611181 94.9920534,9.27893737 C95.0119047,8.98652969 94.9892963,8.55240907 94.9811628,8.41648441 Z" id="line"></path>
                </g>
            </g>
        </g>
    </g>
</svg>