<?xml version="1.0" encoding="UTF-8"?>
<svg width="75px" height="38px" viewBox="0 0 75 38" version="1.1" xmlns="http://www.w3.org/2000/svg" xmlns:xlink="http://www.w3.org/1999/xlink">
    <!-- Generator: Sketch 49.1 (51147) - http://www.bohemiancoding.com/sketch -->
    <title>logo</title>
    <desc>Created with Sketch.</desc>
    <defs></defs>
    <g id="Welcome" stroke="none" stroke-width="1" fill="none" fill-rule="evenodd">
        <g id="regitser-Desktop-HD" transform="translate(-1148.000000, -386.000000)" fill="#FFFFFF">
            <g id="logo" transform="translate(1148.000000, 386.000000)">
                <path d="M70.0684,11.6536 C67.2454,8.8316 63.4924,7.2766 59.5014,7.2766 L54.1274,7.2766 C52.1414,7.2766 50.5324,8.8856 50.5324,10.8706 C50.5324,12.8556 52.1414,14.4646 54.1274,14.4646 L59.5014,14.4646 C61.5724,14.4646 63.5204,15.2706 64.9854,16.7366 C66.4514,18.2016 67.2574,20.1496 67.2574,22.2206 C67.2574,24.2936 66.4514,26.2416 64.9854,27.7066 C61.9614,30.7306 57.0404,30.7306 54.0154,27.7066 L46.2784,19.9686 L41.1954,25.0506 L48.9334,32.7896 C51.8464,35.7026 55.6734,37.1586 59.5014,37.1586 C63.3284,37.1586 67.1544,35.7026 70.0684,32.7896 C72.8904,29.9656 74.4454,26.2136 74.4454,22.2206 C74.4454,18.2296 72.8904,14.4766 70.0684,11.6536" id="Fill-13"></path>
                <path d="M39.3848,23.3402 L26.5468,10.5022 C22.1228,6.0782 14.9248,6.0782 10.5018,10.5022 C6.0778,14.9252 6.0778,22.1232 10.5018,26.5462 C12.5498,28.5952 15.2688,29.7722 18.1598,29.8632 L31.6978,29.8692 C33.6828,29.8702 35.2908,31.4802 35.2898,33.4642 C35.2888,35.4482 33.6808,37.0572 31.6968,37.0572 L31.6948,37.0572 L18.0058,37.0502 C13.2528,36.9172 8.7828,34.9922 5.4188,31.6292 C-1.8062,24.4022 -1.8062,12.6452 5.4188,5.4192 C12.6458,-1.8058 24.4028,-1.8058 31.6288,5.4192 L44.4678,18.2582 L39.3848,23.3402 Z" id="Fill-15"></path>
            </g>
        </g>
    </g>
</svg>