<?xml version="1.0" encoding="utf-8"?>
<!-- Generator: Adobe Illustrator 22.0.1, SVG Export Plug-In . SVG Version: 6.00 Build 0)  -->
<svg version="1.1" id="圖層_1" xmlns="http://www.w3.org/2000/svg" xmlns:xlink="http://www.w3.org/1999/xlink" x="0px" y="0px"
	 viewBox="0 0 500 500" style="enable-background:new 0 0 500 500;" xml:space="preserve">
<style type="text/css">
	.st0{fill:#008ED2;}
	.st1{fill:none;}
</style>
<g>
	<path class="st0" d="M467.2,196.4c-1.8-1.3-4.1-1.6-6.1-0.8l-28.2,10.1v-23c0-3.2-2.3-6-5.5-6.6l-50.3-9.5c-2-0.4-4,0.2-5.5,1.4
		s-2.4,3.2-2.4,5.2v10.9l-186.4-66.7c-2.1-0.7-4.4-0.4-6.1,0.8c-1.8,1.3-2.9,3.3-2.9,5.5v88.4l-28.1,10.1c-2.7,1-4.5,3.5-4.5,6.3
		v42.8c0,2.8,1.8,5.4,4.5,6.3l28.1,10.1v88.4c0,2.2,1.1,4.2,2.9,5.5c1.2,0.8,2.5,1.2,3.9,1.2c0.8,0,1.5-0.1,2.3-0.4l186.4-66.7v10.9
		c0,2,0.9,3.9,2.4,5.2c1.2,1,2.7,1.6,4.3,1.6c0.4,0,0.8,0,1.2-0.1l50.3-9.5c3.2-0.6,5.5-3.4,5.5-6.6v-23l28.2,10.1
		c0.7,0.3,1.5,0.4,2.3,0.4c1.4,0,2.7-0.4,3.9-1.2c1.8-1.3,2.9-3.3,2.9-5.5v-96.1C470.1,199.8,469,197.7,467.2,196.4z M154.6,266.7
		v-33.3l19.1-6.8v47L154.6,266.7z M187.2,366.6V133.4l182,65.1v103L187.2,366.6z M419.4,311.7l-36.8,6.9V181.4l36.8,6.9V311.7z
		 M456.6,288.5l-23.7-8.5v-60l23.7-8.5V288.5z"/>
	<path class="st0" d="M101.9,250c0-3.7-3-6.7-6.7-6.7H36.7c-3.7,0-6.7,3-6.7,6.7s3,6.7,6.7,6.7h58.5
		C98.9,256.7,101.9,253.7,101.9,250z"/>
	<path class="st0" d="M115.1,299.3c-1.9-3.2-6-4.3-9.2-2.5L55.2,326c-3.2,1.9-4.3,6-2.5,9.2c1.2,2.2,3.5,3.4,5.8,3.4
		c1.1,0,2.3-0.3,3.4-0.9l50.7-29.2C115.9,306.7,117,302.5,115.1,299.3z"/>
	<path class="st0" d="M151.2,335.4c-3.2-1.9-7.3-0.8-9.2,2.5l-29.2,50.7c-1.9,3.2-0.8,7.3,2.5,9.2c1.1,0.6,2.2,0.9,3.4,0.9
		c2.3,0,4.6-1.2,5.8-3.4l29.2-50.7C155.5,341.4,154.4,337.3,151.2,335.4z"/>
	<path class="st0" d="M142,162.1c1.2,2.2,3.5,3.4,5.8,3.4c1.1,0,2.3-0.3,3.4-0.9c3.2-1.9,4.3-6,2.5-9.2l-29.2-50.7
		c-1.9-3.2-6-4.3-9.2-2.5c-3.2,1.9-4.3,6-2.5,9.2L142,162.1z"/>
	<path class="st0" d="M55.3,173.9l50.7,29.3c1.1,0.6,2.2,0.9,3.4,0.9c2.3,0,4.6-1.2,5.8-3.4c1.9-3.2,0.8-7.3-2.5-9.2L62,162.2
		c-3.2-1.9-7.3-0.8-9.2,2.5C50.9,167.9,52,172,55.3,173.9z"/>
</g>
<rect class="st1" width="500" height="500"/>
</svg>
