<?xml version="1.0" encoding="utf-8"?>
<!-- Generator: Adobe Illustrator 22.0.1, SVG Export Plug-In . SVG Version: 6.00 Build 0)  -->
<svg version="1.1" id="圖層_1" xmlns="http://www.w3.org/2000/svg" xmlns:xlink="http://www.w3.org/1999/xlink" x="0px" y="0px"
	 viewBox="0 0 500 500" style="enable-background:new 0 0 500 500;" xml:space="preserve">
<style type="text/css">
	.st0{fill:#008ED2;}
	.st1{fill:none;}
</style>
<g>
	<g>
		<path class="st0" d="M411.6,375.3h-20.5c-3.7,0-6.7-3-6.7-6.7s3-6.7,6.7-6.7h13.7V128.4H95.1v233.4h197.4c3.7,0,6.7,3,6.7,6.7
			s-3,6.7-6.7,6.7H88.4c-3.7,0-6.7-3-6.7-6.7V121.7c0-3.7,3-6.7,6.7-6.7h323.3c3.7,0,6.7,3,6.7,6.7v246.9
			C418.4,372.3,415.3,375.3,411.6,375.3z"/>
	</g>
	<g>
		<path class="st0" d="M367.8,469c-0.6,0-1.2-0.1-1.8-0.2c-1.7-0.5-3.2-1.6-4.1-3.2l-31-54.1l-35.1,20.2c-2.1,1.2-4.7,1.2-6.7,0
			c-2.1-1.2-3.4-3.4-3.4-5.8V285.7c0-2.6,1.5-5,3.9-6.1s5.2-0.7,7.2,1l98.7,83.5c1.7,1.4,2.6,3.6,2.4,5.8s-1.4,4.1-3.4,5.2
			L366,391.4l31,54.2c1.8,3.2,0.7,7.3-2.5,9.2L371,468.2C370.1,468.7,368.9,469,367.8,469z M333.4,395.6c0.6,0,1.2,0.1,1.8,0.2
			c1.7,0.5,3.2,1.6,4.1,3.2l31,54.1l11.8-6.7l-31-54.2c-1.8-3.2-0.7-7.3,2.5-9.2l26-14.9l-80.3-67.9v114l30.8-17.7
			C331.1,395.9,332.3,395.6,333.4,395.6z"/>
	</g>
	<g>
		<path class="st0" d="M127.8,161.3c-6,0-10.9-4.9-10.9-10.9s4.9-10.9,10.9-10.9s10.9,4.9,10.9,10.9S133.8,161.3,127.8,161.3z
			 M127.8,147.8c-1.4,0-2.5,1.1-2.5,2.5s1.1,2.5,2.5,2.5c1.4,0,2.5-1.1,2.5-2.5S129.2,147.8,127.8,147.8z"/>
	</g>
	<g>
		<path class="st0" d="M159.7,161.3c-6,0-10.9-4.9-10.9-10.9s4.9-10.9,10.9-10.9s10.9,4.9,10.9,10.9S165.8,161.3,159.7,161.3z
			 M159.7,147.8c-1.4,0-2.5,1.1-2.5,2.5s1.1,2.5,2.5,2.5s2.5-1.1,2.5-2.5S161.1,147.8,159.7,147.8z"/>
	</g>
	<g>
		<path class="st0" d="M191.7,161.3c-6,0-10.9-4.9-10.9-10.9s4.9-10.9,10.9-10.9s10.9,4.9,10.9,10.9S197.7,161.3,191.7,161.3z
			 M191.7,147.8c-1.4,0-2.5,1.1-2.5,2.5s1.1,2.5,2.5,2.5s2.5-1.1,2.5-2.5S193.1,147.8,191.7,147.8z"/>
	</g>
	<g>
		<path class="st0" d="M411.6,185.7H88.4c-3.7,0-6.7-3-6.7-6.7s3-6.7,6.7-6.7h323.3c3.7,0,6.7,3,6.7,6.7S415.3,185.7,411.6,185.7z"
			/>
	</g>
	<g>
		<path class="st0" d="M233.9,339.6H123.6c-3.7,0-6.7-3-6.7-6.7V209.3c0-3.7,3-6.7,6.7-6.7h110.3c3.7,0,6.7,3,6.7,6.7v123.5
			C240.6,336.5,237.6,339.6,233.9,339.6z M130.3,326.1h96.9V216h-96.9L130.3,326.1L130.3,326.1z"/>
	</g>
	<g>
		<path class="st0" d="M374.6,234H272.1c-3.7,0-6.7-3-6.7-6.7s3-6.7,6.7-6.7h102.5c3.7,0,6.7,3,6.7,6.7S378.3,234,374.6,234z"/>
	</g>
	<g>
		<path class="st0" d="M374.6,263.2H272.1c-3.7,0-6.7-3-6.7-6.7s3-6.7,6.7-6.7h102.5c3.7,0,6.7,3,6.7,6.7
			C381.3,260.2,378.3,263.2,374.6,263.2z"/>
	</g>
</g>
<rect class="st1" width="500" height="500"/>
</svg>
