<?xml version="1.0" encoding="UTF-8"?>
<svg width="25px" height="21px" viewBox="0 0 25 21" version="1.1" xmlns="http://www.w3.org/2000/svg" xmlns:xlink="http://www.w3.org/1999/xlink">
    <!-- Generator: Sketch 50.2 (55047) - http://www.bohemiancoding.com/sketch -->
    <title>wechat</title>
    <desc>Created with Sketch.</desc>
    <defs></defs>
    <g id="Index" stroke="none" stroke-width="1" fill="none" fill-rule="evenodd">
        <g id="Index-Desktop-HD" transform="translate(-1196.000000, -3547.000000)" fill="#4A4A4A">
            <g id="footer" transform="translate(220.000000, 3547.000000)">
                <g id="social-media" transform="translate(861.000000, 0.000000)">
                    <g id="wechat" transform="translate(115.000000, 0.000000)">
                        <path d="M19.5378788,13.0885464 C18.8917879,13.0885464 18.3674242,12.582213 18.3674242,11.958338 C18.3674242,11.334463 18.8917879,10.8281297 19.5378788,10.8281297 C20.1839697,10.8281297 20.7083333,11.334463 20.7083333,11.958338 C20.7083333,12.582213 20.1839697,13.0885464 19.5378788,13.0885464 M14.8560606,13.0885464 C14.2099697,13.0885464 13.6856061,12.582213 13.6856061,11.958338 C13.6856061,11.334463 14.2099697,10.8281297 14.8560606,10.8281297 C15.5021515,10.8281297 16.0265152,11.334463 16.0265152,11.958338 C16.0265152,12.582213 15.5021515,13.0885464 14.8560606,13.0885464 M25,13.4652825 C25,10.1364422 21.505803,7.43750471 17.1969697,7.43750471 C12.8881364,7.43750471 9.39393939,10.1364422 9.39393939,13.4652825 C9.39393939,16.7940757 12.8881364,19.4930603 17.1969697,19.4930603 C17.9054848,19.4930603 18.5796667,19.3966158 19.2335606,19.2594839 L23.4393939,21.0000047 L21.9849091,18.1925672 C23.807697,17.0894839 25,15.3926644 25,13.4652825" id="Fill-3"></path>
                        <path d="M6.26906522,5.625 C5.62021697,5.625 5.09361549,5.121 5.09361549,4.5 C5.09361549,3.879 5.62021697,3.375 6.26906522,3.375 C6.91791347,3.375 7.44451495,3.879 7.44451495,4.5 C7.44451495,5.121 6.91791347,5.625 6.26906522,5.625 M12.5381304,3.375 C13.1869787,3.375 13.7135802,3.879 13.7135802,4.5 C13.7135802,5.121 13.1869787,5.625 12.5381304,5.625 C11.8892822,5.625 11.3626807,5.121 11.3626807,4.5 C11.3626807,3.879 11.8892822,3.375 12.5381304,3.375 M17.2399294,6 C17.714811,6 18.1787219,6.0375 18.6363636,6.0915 C17.808847,2.6235 13.9925536,0 9.40359783,0 C4.2096773,0 0,3.3585 0,7.5 C0,9.888 1.40740514,12.006 3.59060711,13.377 L2.35089946,15.75 L5.72835835,14.3655 C6.45243538,14.6115 7.20472321,14.814 8.00873082,14.9085 C7.89902218,14.451 7.83633153,13.9814531 7.83633153,13.5 C7.83633153,9.3645 12.0538452,6 17.2399294,6" id="Fill-1"></path>
                    </g>
                </g>
            </g>
        </g>
    </g>
</svg>